<mxfile host="app.diagrams.net" modified="2024-04-13T03:37:00.658Z" agent="Mozilla/5.0 (Windows NT 10.0; Win64; x64) AppleWebKit/537.36 (KHTML, like Gecko) Chrome/123.0.0.0 Safari/537.36" version="24.2.5" etag="GdOw1S9eRhPygB6R6D5P" type="github">
  <diagram name="Page-1" id="O_9qxkZul0zt-5jg1zpl">
    <mxGraphModel>
      <root>
        <mxCell id="0" />
        <mxCell id="1" parent="0" />
      </root>
    </mxGraphModel>
  </diagram>
</mxfile>
